<svg preserveAspectRatio="none" width="100%" height="100%" overflow="visible" style="display: block;" viewBox="0 0 233.153 73.0825" fill="none" xmlns="http://www.w3.org/2000/svg">
<g id="Group 25">
<path id="Vector" d="M0 41.9252L8.41745 38.9727C10.6521 47.2396 16.1865 50.1921 21.7904 50.1921C27.3943 50.1921 32.292 47.5985 32.292 42.1336C32.292 36.6686 27.1165 35.0824 22.0799 33.5772L17.0433 31.9909C11.5089 30.2658 1.86411 26.6649 1.86411 16.0939C1.86411 5.52287 10.6405 0 20.9336 0C31.2268 0 38.1275 5.8239 40.1421 13.1646L31.8752 16.5454C30.0805 11.4394 26.2712 8.19746 20.6558 8.19746C15.0403 8.19746 11.3815 11.1499 11.3815 15.3876C11.3815 20.7136 17.5643 22.8672 21.7441 24.2335L27.568 26.1091C32.9635 27.8343 42.0294 30.4973 42.0294 40.9989C42.0294 51.5004 33.7624 58.4706 21.8946 58.4706C11.6825 58.4706 2.83669 53.0751 0.034735 41.9252H0Z" fill="var(--fill-0, white)"/>
<path id="Vector_2" d="M44.9585 17.2633H53.3064V23.9556H53.4454C56.9652 18.4906 61.6428 16.1171 67.1078 16.1171C77.8988 16.1171 84.7995 25.3913 84.7995 37.1202C84.7995 50.3542 76.3126 58.4822 66.5289 58.4822C60.265 58.4822 55.8884 55.1708 53.4338 51.2226V73.0825H44.9469V17.2633H44.9585ZM64.7343 50.4121C71.276 50.4121 75.9537 44.8777 75.9537 37.317C75.9537 29.7563 71.2065 24.1524 64.7343 24.1524C58.262 24.1524 53.2949 29.5479 53.2949 37.317C53.2949 45.0861 58.262 50.4121 64.7343 50.4121Z" fill="var(--fill-0, white)"/>
<path id="Vector_3" d="M85.1585 47.1817C85.1585 39.6327 91.3413 36.6107 98.5314 35.094C107.018 33.2993 110.619 33.0099 110.619 29.2701C110.619 25.8892 107.748 23.0872 103.14 23.0872C99.1104 23.0872 95.799 25.3913 94.4327 30.069L86.4552 27.3365C88.8983 19.2085 96.0884 16.1171 103.568 16.1171C112.634 16.1171 119.315 20.6442 119.315 30.069V44.7387C119.315 51.3499 119.812 54.094 120.611 57.2549H112.055C111.476 55.2403 111.268 53.3762 111.268 51.0721H111.129C108.894 55.5297 104.228 58.4822 98.3925 58.4822C91.5613 58.4822 85.1585 54.8119 85.1585 47.1933V47.1817ZM100.697 51.8594C106.879 51.8594 110.689 46.3944 110.689 41.9368V38.058C108.605 39.1348 105.513 40.0032 102.422 40.6516C98.8209 41.4389 94.5138 43.0251 94.5138 46.9039C94.5138 50.0647 97.0263 51.871 100.697 51.871V51.8594Z" fill="var(--fill-0, white)"/>
<path id="Vector_4" d="M121.758 37.3286C121.758 24.384 130.465 16.1055 142.112 16.1055C150.24 16.1055 157.431 20.2737 160.383 28.2627L152.325 31.5047C150.599 26.5376 146.64 24.164 142.043 24.164C135.142 24.164 130.685 29.849 130.685 37.2591C130.685 45.3176 135.791 50.4237 142.402 50.4237C147.577 50.4237 151.607 47.3323 153.621 42.2957L161.529 45.3871C158.646 53.654 151.387 58.4822 142.321 58.4822C130.523 58.4822 121.746 50.2847 121.746 37.3402L121.758 37.3286Z" fill="var(--fill-0, white)"/>
<path id="Vector_5" d="M161.112 37.3981C161.112 25.1019 169.379 16.1055 181.039 16.1055C190.313 16.1055 200.027 21.9294 200.027 37.0391V39.5516H169.75C170.398 46.6723 175.354 50.8405 181.618 50.8405C186.585 50.8405 190.463 47.888 192.339 43.2914L200.328 46.4523C197.596 53.5035 190.695 58.459 181.629 58.459C169.912 58.459 161.136 50.1111 161.136 37.3865L161.112 37.3981ZM191.39 33.4383C190.811 26.1786 185.925 23.4462 180.958 23.4462C175.064 23.4462 171.174 27.5449 170.167 33.4383H191.39Z" fill="var(--fill-0, white)"/>
<path id="Vector_6" d="M200.618 47.2516L208.526 44.6581C210.402 49.3357 214.28 51.4198 217.731 51.4198C220.394 51.4198 224.064 50.2736 224.064 46.6032C224.064 43.2224 220.753 42.2151 217.661 41.2772L213.493 40.0499C208.885 38.6837 202.494 35.8007 202.494 28.2516C202.494 20.7025 209.105 16.0943 217.024 16.0943C224.944 16.0943 230.259 20.413 231.984 26.0864L224.076 28.68C222.999 25.7275 220.695 23.0761 216.666 23.0761C213.435 23.0761 211.062 24.8707 211.062 27.6032C211.062 31.2041 215.38 32.5703 218.761 33.4966L222.073 34.4344C226.032 35.5807 233.153 37.6648 233.153 45.7233C233.153 53.2724 227.109 58.4595 217.835 58.4595C209.059 58.4595 202.656 53.9323 200.641 47.24L200.618 47.2516Z" fill="var(--fill-0, white)"/>
</g>
</svg>
