<svg preserveAspectRatio="xMidYMid meet" overflow="visible" style="display: block;" viewBox="0 0 373.806 75.4516" fill="none" xmlns="http://www.w3.org/2000/svg">
<g id="Group 2">
<path id="Vector" d="M0 10.8249V2.34408H44.881V10.8249H27.0164V59.3649H17.7988V10.8249H0Z" fill="var(--fill-0, white)"/>
<path id="Vector_2" d="M48.085 0.876153H56.732V25.2229H56.8856C59.9582 19.8758 64.7206 17.5529 69.922 17.5529C77.318 17.5529 84.341 22.3083 84.341 33.7913V59.3871H75.6281V37.6044C75.6281 30.8767 73.1481 25.7707 66.9153 25.7707C61.0555 25.7707 56.732 30.3727 56.732 37.9112V59.4091H48.085V0.876153Z" fill="var(--fill-0, white)"/>
<path id="Vector_3" d="M91.3862 18.7149H99.8796V25.5959H100.165C102.206 21.1474 106.529 17.5534 112.17 17.5534C113.487 17.5534 114.803 17.7068 116.274 18.2766V27.9189C114.738 27.3272 112.609 27.108 111.292 27.108C102.074 27.108 100.011 35.808 100.011 42.4699V59.3658H91.3643V18.7149H91.3862Z" fill="var(--fill-0, white)"/>
<path id="Vector_4" d="M116.757 39.1828C116.757 26.6917 125.184 17.5534 137.036 17.5534C146.473 17.5534 156.371 23.4703 156.371 38.8321V41.3961H125.557C126.216 48.6278 131.264 52.8792 137.628 52.8792C142.676 52.8792 146.626 49.8769 148.536 45.2092L156.656 48.4306C153.869 55.5965 146.846 60.6368 137.628 60.6368C125.689 60.6368 116.757 52.156 116.757 39.2266V39.1828ZM147.57 35.1725C146.977 27.7874 141.995 25.0043 136.948 25.0043C130.934 25.0043 126.984 29.168 125.974 35.1725H147.57Z" fill="var(--fill-0, white)"/>
<path id="Vector_5" d="M159.048 39.1828C159.048 26.6917 167.475 17.5534 179.327 17.5534C188.764 17.5534 198.662 23.4703 198.662 38.8321V41.3961H167.848C168.507 48.6278 173.555 52.8792 179.919 52.8792C184.967 52.8792 188.917 49.8769 190.827 45.2092L198.947 48.4306C196.16 55.5965 189.137 60.6368 179.919 60.6368C167.98 60.6368 159.048 52.156 159.048 39.2266V39.1828ZM189.883 35.1725C189.29 27.7874 184.308 25.0043 179.261 25.0043C173.247 25.0043 169.297 29.168 168.287 35.1725H189.883Z" fill="var(--fill-0, white)"/>
<path id="Vector_6" d="M200.944 43.7855L209.503 40.7832C211.763 49.1983 217.404 52.1786 223.11 52.1786C228.531 52.1786 233.798 49.5489 233.798 43.9827C233.798 38.4165 228.531 36.8167 223.395 35.2827L218.282 33.683C212.641 31.9299 202.831 28.2702 202.831 17.5322C202.831 6.79424 211.763 1.16228 222.232 1.16228C232.701 1.16228 239.724 7.07913 241.787 14.53L233.359 17.9705C231.537 12.7768 227.653 9.48969 221.947 9.48969C216.241 9.48969 212.51 12.4919 212.51 16.809C212.51 22.2219 218.808 24.4133 223.044 25.7939L228.97 27.7004C234.456 29.4536 243.696 32.1709 243.696 42.8431C243.696 53.5154 235.268 60.6156 223.198 60.6156C212.795 60.6156 203.797 55.137 200.944 43.8074V43.7855Z" fill="var(--fill-0, white)"/>
<path id="Vector_7" d="M252.717 0C255.855 0 258.291 2.56396 258.291 5.56621C258.291 8.78761 255.877 11.3516 252.717 11.3516C249.556 11.3516 247.011 8.78761 247.011 5.56621C247.011 2.56396 249.425 0 252.717 0ZM248.327 18.7147H256.974V59.3656H248.327V18.7147Z" fill="var(--fill-0, white)"/>
<path id="Vector_8" d="M311.566 46.6337V26.5384H303.512V18.715H311.566V7.0128H320.279V18.715H331.691V26.5384H320.279V43.6534C320.279 47.6637 320.279 52.7259 325.853 52.7259C327.763 52.7259 329.804 52.1342 331.713 51.1261V58.9495C329.672 60.111 326.885 60.6369 324.163 60.6369C311.566 60.6369 311.566 50.9947 311.566 46.6776V46.6337Z" fill="var(--fill-0, white)"/>
<path id="Vector_9" d="M348.831 60.7472L332.876 18.7157H342.401C346.132 28.6648 349.643 38.5262 353.374 49.1984H353.528C357.259 38.5262 360.858 28.5771 364.501 18.7157H373.806L352.211 75.4516H343.125L348.831 60.7472Z" fill="var(--fill-0, white)"/>
<path id="Vector_10" d="M279.14 33.3529H279.096L269.725 18.8676H259.63L273.236 38.8314V38.9848C268.694 45.7783 264.151 52.6593 259.63 59.5185H269.659C272.798 54.6973 275.958 49.8762 279.096 44.9674H279.14V33.3529Z" fill="var(--fill-0, white)"/>
<path id="Vector_11" d="M288.588 38.8314L302.129 18.8676H292.319L282.947 33.3529H282.86V44.9674H282.947C286.086 49.8762 289.246 54.6973 292.384 59.5185H302.26C297.652 52.6374 293.109 45.7783 288.566 38.9848V38.8314H288.588Z" fill="var(--fill-0, white)"/>
</g>
</svg>
